<svg width="252" height="78" viewBox="0 0 252 78" fill="none" xmlns="http://www.w3.org/2000/svg">
<g clip-path="url(#clip0)">
<path d="M49.9617 32.5102C49.9617 30.143 48.9097 27.2499 44.0439 27.2499C41.6768 27.2499 40.7562 27.9074 39.5726 28.6965C38.2576 29.617 36.548 30.8006 33.1288 30.8006C30.8932 30.8006 29.3151 30.4061 28 29.88C29.4466 33.4307 32.9973 37.902 42.0713 37.902C46.8056 37.7705 49.9617 35.0088 49.9617 32.5102Z" fill="black"/>
<path d="M60.4823 51.8418C55.8796 51.8418 53.1179 50.3952 51.6713 49.2116C50.2247 50.3952 47.4631 51.8418 42.8603 51.8418C35.6274 51.8418 33.1288 42.2417 32.4712 39.3486C31.9452 39.0855 31.5507 38.954 31.0247 38.691L31.6822 44.7404C32.8658 54.9979 45.4905 61.8363 51.6713 62.3623C57.4576 61.7048 70.0823 54.9979 71.3974 44.7404L72.055 38.5595C71.6604 38.8225 71.1344 39.0855 70.6084 39.3486C70.2139 42.3732 67.7152 51.8418 60.4823 51.8418Z" fill="black"/>
<path d="M63.9015 28.6965C62.718 27.9074 61.6659 27.2499 59.4303 27.2499C54.5645 27.2499 53.5125 30.143 53.5125 32.5102C53.5125 35.0088 56.6686 37.7705 61.2714 37.7705C70.3454 37.7705 73.8961 33.2992 75.3427 29.7485C74.0276 30.2745 72.4495 30.6691 70.3454 30.6691C66.9262 30.8006 65.2166 29.617 63.9015 28.6965Z" fill="black"/>
</g>
<g filter="url(#filter0_d)">
<path d="M99.2266 46.1016C98.6719 46.6484 97.8633 47.1445 96.8008 47.5898C95.7383 48.0273 94.3945 48.2461 92.7695 48.2461C90.4648 48.2461 88.5898 47.4766 87.1445 45.9375C85.6992 44.3906 84.9766 42.3828 84.9766 39.9141V39.3281C84.9766 36.7734 85.6875 34.6953 87.1094 33.0938C88.5391 31.4922 90.4023 30.6914 92.6992 30.6914C94.0352 30.6914 95.2539 30.9062 96.3555 31.3359C97.4648 31.7578 98.3867 32.332 99.1211 33.0586V36.4922H96.5898L96.1094 34.207C95.7969 33.9414 95.3828 33.7305 94.8672 33.5742C94.3594 33.4102 93.7734 33.3281 93.1094 33.3281C91.6172 33.3281 90.457 33.8789 89.6289 34.9805C88.8008 36.082 88.3867 37.5234 88.3867 39.3047V39.9141C88.3867 41.6484 88.793 43.0352 89.6055 44.0742C90.418 45.1055 91.5898 45.6211 93.1211 45.6211C93.8086 45.6211 94.3633 45.5625 94.7852 45.4453C95.2148 45.3281 95.5508 45.1914 95.793 45.0352V42.1406L93.3555 41.9531V39.5508H99.2266V46.1016ZM116.547 39.5977C116.547 42.0977 115.832 44.1641 114.402 45.7969C112.973 47.4297 111.102 48.2461 108.789 48.2461C106.484 48.2461 104.621 47.4297 103.199 45.7969C101.785 44.1641 101.078 42.0977 101.078 39.5977V39.3398C101.078 36.8555 101.785 34.793 103.199 33.1523C104.613 31.5117 106.473 30.6914 108.777 30.6914C111.09 30.6914 112.961 31.5117 114.391 33.1523C115.828 34.793 116.547 36.8555 116.547 39.3398V39.5977ZM113.137 39.3164C113.137 37.5508 112.77 36.1172 112.035 35.0156C111.301 33.9141 110.215 33.3633 108.777 33.3633C107.34 33.3633 106.266 33.9102 105.555 35.0039C104.852 36.0977 104.5 37.5352 104.5 39.3164V39.5977C104.5 41.3945 104.855 42.8438 105.566 43.9453C106.285 45.0391 107.359 45.5859 108.789 45.5859C110.234 45.5859 111.32 45.0391 112.047 43.9453C112.773 42.8438 113.137 41.3945 113.137 39.5977V39.3164ZM125.5 30.9375C127.508 30.9375 129.074 31.3281 130.199 32.1094C131.324 32.8906 131.887 34.0586 131.887 35.6133C131.887 36.4023 131.676 37.1094 131.254 37.7344C130.84 38.3516 130.234 38.8164 129.438 39.1289C130.461 39.3477 131.227 39.8164 131.734 40.5352C132.25 41.2539 132.508 42.0859 132.508 43.0312C132.508 44.6641 131.969 45.9023 130.891 46.7461C129.812 47.582 128.285 48 126.309 48H117.918V45.9492L119.734 45.5977V33.3516L117.918 33V30.9375H119.734H125.5ZM123.156 40.4531V45.375H126.309C127.215 45.375 127.906 45.1797 128.383 44.7891C128.859 44.3906 129.098 43.8047 129.098 43.0312C129.098 42.1953 128.895 41.5586 128.488 41.1211C128.082 40.6758 127.441 40.4531 126.566 40.4531H123.156ZM123.156 38.0859H125.617C126.531 38.0859 127.234 37.8984 127.727 37.5234C128.219 37.1484 128.465 36.6016 128.465 35.8828C128.465 35.0938 128.215 34.5117 127.715 34.1367C127.223 33.7617 126.484 33.5742 125.5 33.5742H123.156V38.0859ZM133.609 45.9492L134.828 45.7734L140.02 30.9375H143.523L148.68 45.7734L149.898 45.9492V48H144.086V45.9492L145.27 45.7383L144.52 43.3945H138.988L138.238 45.7383L139.422 45.9492V48H133.609V45.9492ZM139.797 40.875H143.711L141.789 34.8633H141.719L139.797 40.875ZM158.699 30.9375C160.637 30.9375 162.156 31.3828 163.258 32.2734C164.359 33.1562 164.91 34.3789 164.91 35.9414C164.91 36.8008 164.68 37.5469 164.219 38.1797C163.758 38.8125 163.082 39.3242 162.191 39.7148C163.199 40.0117 163.922 40.5078 164.359 41.2031C164.805 41.8906 165.027 42.7461 165.027 43.7695V44.6367C165.027 45.0117 165.102 45.3047 165.25 45.5156C165.398 45.7188 165.645 45.8398 165.988 45.8789L166.41 45.9375V48H164.641C163.523 48 162.738 47.6992 162.285 47.0977C161.832 46.4961 161.605 45.7188 161.605 44.7656V43.793C161.605 42.9648 161.383 42.3164 160.938 41.8477C160.5 41.3711 159.879 41.1211 159.074 41.0977H156.273V45.5977L158.102 45.9492V48H151.035V45.9492L152.852 45.5977V33.3516L151.035 33V30.9375H152.852H158.699ZM156.273 38.4609H158.641C159.594 38.4609 160.309 38.2578 160.785 37.8516C161.262 37.4453 161.5 36.8594 161.5 36.0938C161.5 35.3281 161.262 34.7188 160.785 34.2656C160.316 33.8047 159.621 33.5742 158.699 33.5742H156.273V38.4609ZM175.117 30.9375C177.125 30.9375 178.691 31.3281 179.816 32.1094C180.941 32.8906 181.504 34.0586 181.504 35.6133C181.504 36.4023 181.293 37.1094 180.871 37.7344C180.457 38.3516 179.852 38.8164 179.055 39.1289C180.078 39.3477 180.844 39.8164 181.352 40.5352C181.867 41.2539 182.125 42.0859 182.125 43.0312C182.125 44.6641 181.586 45.9023 180.508 46.7461C179.43 47.582 177.902 48 175.926 48H167.535V45.9492L169.352 45.5977V33.3516L167.535 33V30.9375H169.352H175.117ZM172.773 40.4531V45.375H175.926C176.832 45.375 177.523 45.1797 178 44.7891C178.477 44.3906 178.715 43.8047 178.715 43.0312C178.715 42.1953 178.512 41.5586 178.105 41.1211C177.699 40.6758 177.059 40.4531 176.184 40.4531H172.773ZM172.773 38.0859H175.234C176.148 38.0859 176.852 37.8984 177.344 37.5234C177.836 37.1484 178.082 36.6016 178.082 35.8828C178.082 35.0938 177.832 34.5117 177.332 34.1367C176.84 33.7617 176.102 33.5742 175.117 33.5742H172.773V38.0859ZM194.418 40.5H188.641V45.375H194.148L194.301 43.3359H196.902V48H183.402V45.9492L185.219 45.5977V33.3516L183.402 33V30.9375H185.219H196.879V35.6133H194.254L194.102 33.5742H188.641V37.8633H194.418V40.5ZM206.395 30.9375C208.332 30.9375 209.852 31.3828 210.953 32.2734C212.055 33.1562 212.605 34.3789 212.605 35.9414C212.605 36.8008 212.375 37.5469 211.914 38.1797C211.453 38.8125 210.777 39.3242 209.887 39.7148C210.895 40.0117 211.617 40.5078 212.055 41.2031C212.5 41.8906 212.723 42.7461 212.723 43.7695V44.6367C212.723 45.0117 212.797 45.3047 212.945 45.5156C213.094 45.7188 213.34 45.8398 213.684 45.8789L214.105 45.9375V48H212.336C211.219 48 210.434 47.6992 209.98 47.0977C209.527 46.4961 209.301 45.7188 209.301 44.7656V43.793C209.301 42.9648 209.078 42.3164 208.633 41.8477C208.195 41.3711 207.574 41.1211 206.77 41.0977H203.969V45.5977L205.797 45.9492V48H198.73V45.9492L200.547 45.5977V33.3516L198.73 33V30.9375H200.547H206.395ZM203.969 38.4609H206.336C207.289 38.4609 208.004 38.2578 208.48 37.8516C208.957 37.4453 209.195 36.8594 209.195 36.0938C209.195 35.3281 208.957 34.7188 208.48 34.2656C208.012 33.8047 207.316 33.5742 206.395 33.5742H203.969V38.4609Z" fill="black"/>
<path d="M99.2266 46.1016L99.9286 46.8137L100.227 46.5199V46.1016H99.2266ZM96.8008 47.5898L97.1815 48.5145L97.1873 48.5121L96.8008 47.5898ZM87.1445 45.9375L86.4138 46.6202L86.4156 46.6221L87.1445 45.9375ZM87.1094 33.0938L86.3634 32.4278L86.3616 32.4298L87.1094 33.0938ZM96.3555 31.3359L95.9921 32.2676L96 32.2706L96.3555 31.3359ZM99.1211 33.0586H100.121V32.6412L99.8244 32.3477L99.1211 33.0586ZM99.1211 36.4922V37.4922H100.121V36.4922H99.1211ZM96.5898 36.4922L95.6112 36.6979L95.7782 37.4922H96.5898V36.4922ZM96.1094 34.207L97.088 34.0013L97.0176 33.6666L96.757 33.4451L96.1094 34.207ZM94.8672 33.5742L94.5598 34.5258L94.5684 34.5286L94.5772 34.5312L94.8672 33.5742ZM89.6055 44.0742L88.8177 44.6902L88.82 44.6931L89.6055 44.0742ZM94.7852 45.4453L94.522 44.4805L94.5175 44.4818L94.7852 45.4453ZM95.793 45.0352L96.3351 45.8755L96.793 45.5801V45.0352H95.793ZM95.793 42.1406H96.793V41.2146L95.8697 41.1436L95.793 42.1406ZM93.3555 41.9531H92.3555V42.8792L93.2788 42.9502L93.3555 41.9531ZM93.3555 39.5508V38.5508H92.3555V39.5508H93.3555ZM99.2266 39.5508H100.227V38.5508H99.2266V39.5508ZM98.5245 45.3895C98.0932 45.8147 97.4103 46.2501 96.4142 46.6676L97.1873 48.5121C98.3162 48.039 99.2506 47.4822 99.9286 46.8137L98.5245 45.3895ZM96.42 46.6652C95.5173 47.0369 94.314 47.2461 92.7695 47.2461V49.2461C94.4751 49.2461 95.9593 49.0178 97.1815 48.5145L96.42 46.6652ZM92.7695 47.2461C90.7128 47.2461 89.1114 46.5711 87.8735 45.2529L86.4156 46.6221C88.0683 48.382 90.2169 49.2461 92.7695 49.2461V47.2461ZM87.8752 45.2548C86.6314 43.9236 85.9766 42.1743 85.9766 39.9141H83.9766C83.9766 42.5913 84.767 44.8577 86.4138 46.6202L87.8752 45.2548ZM85.9766 39.9141V39.3281H83.9766V39.9141H85.9766ZM85.9766 39.3281C85.9766 36.9684 86.628 35.1422 87.8572 33.7577L86.3616 32.4298C84.747 34.2484 83.9766 36.5784 83.9766 39.3281H85.9766ZM87.8554 33.7597C89.0809 32.3869 90.6648 31.6914 92.6992 31.6914V29.6914C90.1399 29.6914 87.9972 30.5975 86.3634 32.4278L87.8554 33.7597ZM92.6992 31.6914C93.9269 31.6914 95.0204 31.8885 95.9921 32.2676L96.7189 30.4043C95.4874 29.924 94.1435 29.6914 92.6992 29.6914V31.6914ZM96 32.2706C96.9984 32.6503 97.7962 33.1545 98.4178 33.7695L99.8244 32.3477C98.9772 31.5096 97.9313 30.8653 96.7109 30.4012L96 32.2706ZM98.1211 33.0586V36.4922H100.121V33.0586H98.1211ZM99.1211 35.4922H96.5898V37.4922H99.1211V35.4922ZM97.5684 36.2864L97.088 34.0013L95.1308 34.4128L95.6112 36.6979L97.5684 36.2864ZM96.757 33.4451C96.3127 33.0674 95.7649 32.8014 95.1572 32.6172L94.5772 34.5312C95.0007 34.6596 95.2811 34.8154 95.4617 34.969L96.757 33.4451ZM95.1746 32.6226C94.5467 32.4198 93.8534 32.3281 93.1094 32.3281V34.3281C93.6935 34.3281 94.1721 34.4005 94.5598 34.5258L95.1746 32.6226ZM93.1094 32.3281C91.333 32.3281 89.864 33.0036 88.8296 34.3796L90.4282 35.5814C91.05 34.7542 91.9014 34.3281 93.1094 34.3281V32.3281ZM88.8296 34.3796C87.8375 35.6992 87.3867 37.3703 87.3867 39.3047H89.3867C89.3867 37.6765 89.764 36.4649 90.4282 35.5814L88.8296 34.3796ZM87.3867 39.3047V39.9141H89.3867V39.3047H87.3867ZM87.3867 39.9141C87.3867 41.8012 87.8298 43.4268 88.8177 44.6902L90.3932 43.4582C89.7562 42.6435 89.3867 41.4957 89.3867 39.9141H87.3867ZM88.82 44.6931C89.8549 46.0067 91.3407 46.6211 93.1211 46.6211V44.6211C91.8389 44.6211 90.981 44.2043 90.391 43.4553L88.82 44.6931ZM93.1211 46.6211C93.8539 46.6211 94.5089 46.5599 95.0528 46.4088L94.5175 44.4818C94.2176 44.5651 93.7633 44.6211 93.1211 44.6211V46.6211ZM95.0483 46.4101C95.5291 46.2789 95.9733 46.1089 96.3351 45.8755L95.2508 44.1949C95.1282 44.274 94.9006 44.3773 94.522 44.4805L95.0483 46.4101ZM96.793 45.0352V42.1406H94.793V45.0352H96.793ZM95.8697 41.1436L93.4322 40.9561L93.2788 42.9502L95.7163 43.1377L95.8697 41.1436ZM94.3555 41.9531V39.5508H92.3555V41.9531H94.3555ZM93.3555 40.5508H99.2266V38.5508H93.3555V40.5508ZM98.2266 39.5508V46.1016H100.227V39.5508H98.2266ZM103.199 45.7969L102.443 46.4515L102.445 46.4536L103.199 45.7969ZM114.391 33.1523L113.637 33.8093L113.638 33.8114L114.391 33.1523ZM105.555 35.0039L104.716 34.4589L104.714 34.4631L105.555 35.0039ZM105.566 43.9453L104.726 44.4876L104.731 44.4945L105.566 43.9453ZM112.047 43.9453L112.88 44.4986L112.882 44.4959L112.047 43.9453ZM115.547 39.5977C115.547 41.8944 114.896 43.7151 113.65 45.1381L115.155 46.4556C116.768 44.6131 117.547 42.3009 117.547 39.5977H115.547ZM113.65 45.1381C112.424 46.5385 110.835 47.2461 108.789 47.2461V49.2461C111.368 49.2461 113.521 48.3209 115.155 46.4556L113.65 45.1381ZM108.789 47.2461C106.752 47.2461 105.172 46.5394 103.953 45.1402L102.445 46.4536C104.07 48.3199 106.216 49.2461 108.789 49.2461V47.2461ZM103.955 45.1422C102.723 43.7194 102.078 41.8973 102.078 39.5977H100.078C100.078 42.298 100.847 44.6088 102.443 46.4515L103.955 45.1422ZM102.078 39.5977V39.3398H100.078V39.5977H102.078ZM102.078 39.3398C102.078 37.0577 102.722 35.2378 103.957 33.8052L102.442 32.4995C100.848 34.3481 100.078 36.6532 100.078 39.3398H102.078ZM103.957 33.8052C105.167 32.4005 106.742 31.6914 108.777 31.6914V29.6914C106.203 29.6914 104.059 30.6229 102.442 32.4995L103.957 33.8052ZM108.777 31.6914C110.821 31.6914 112.41 32.4017 113.637 33.8093L115.145 32.4954C113.512 30.6218 111.358 29.6914 108.777 29.6914V31.6914ZM113.638 33.8114C114.894 35.2443 115.547 37.062 115.547 39.3398H117.547C117.547 36.6489 116.762 34.3416 115.143 32.4933L113.638 33.8114ZM115.547 39.3398V39.5977H117.547V39.3398H115.547ZM114.137 39.3164C114.137 37.4179 113.742 35.7733 112.867 34.4609L111.203 35.5703C111.797 36.4611 112.137 37.6837 112.137 39.3164H114.137ZM112.867 34.4609C111.929 33.054 110.515 32.3633 108.777 32.3633V34.3633C109.914 34.3633 110.672 34.7741 111.203 35.5703L112.867 34.4609ZM108.777 32.3633C107.042 32.3633 105.633 33.0487 104.716 34.4589L106.393 35.5489C106.898 34.7716 107.637 34.3633 108.777 34.3633V32.3633ZM104.714 34.4631C103.875 35.7676 103.5 37.412 103.5 39.3164H105.5C105.5 37.6583 105.828 36.4278 106.396 35.5447L104.714 34.4631ZM103.5 39.3164V39.5977H105.5V39.3164H103.5ZM103.5 39.5977C103.5 41.5179 103.879 43.1748 104.726 44.4876L106.407 43.403C105.832 42.5127 105.5 41.2711 105.5 39.5977H103.5ZM104.731 44.4945C105.654 45.8991 107.06 46.5859 108.789 46.5859V44.5859C107.659 44.5859 106.917 44.179 106.402 43.3961L104.731 44.4945ZM108.789 46.5859C110.53 46.5859 111.947 45.903 112.88 44.4986L111.214 43.392C110.694 44.1751 109.939 44.5859 108.789 44.5859V46.5859ZM112.882 44.4959C113.748 43.1817 114.137 41.5215 114.137 39.5977H112.137C112.137 41.2676 111.798 42.5058 111.212 43.3947L112.882 44.4959ZM114.137 39.5977V39.3164H112.137V39.5977H114.137ZM131.254 37.7344L130.425 37.1749L130.423 37.1773L131.254 37.7344ZM129.438 39.1289L129.072 38.1979L125.977 39.4118L129.228 40.1068L129.438 39.1289ZM131.734 40.5352L130.918 41.1122L130.922 41.1181L131.734 40.5352ZM130.891 46.7461L131.503 47.5364L131.507 47.5336L130.891 46.7461ZM117.918 48H116.918V49H117.918V48ZM117.918 45.9492L117.728 44.9674L116.918 45.1242V45.9492H117.918ZM119.734 45.5977L119.924 46.5794L120.734 46.4227V45.5977H119.734ZM119.734 33.3516H120.734V32.5266L119.924 32.3698L119.734 33.3516ZM117.918 33H116.918V33.825L117.728 33.9818L117.918 33ZM117.918 30.9375V29.9375H116.918V30.9375H117.918ZM123.156 40.4531V39.4531H122.156V40.4531H123.156ZM123.156 45.375H122.156V46.375H123.156V45.375ZM128.383 44.7891L129.017 45.5625L129.024 45.5563L128.383 44.7891ZM128.488 41.1211L127.749 41.7951L127.755 41.8015L128.488 41.1211ZM123.156 38.0859H122.156V39.0859H123.156V38.0859ZM127.715 34.1367L127.109 34.9322L127.115 34.9367L127.715 34.1367ZM123.156 33.5742V32.5742H122.156V33.5742H123.156ZM125.5 31.9375C127.394 31.9375 128.733 32.3084 129.629 32.9307L130.77 31.288C129.416 30.3478 127.621 29.9375 125.5 29.9375V31.9375ZM129.629 32.9307C130.445 33.4976 130.887 34.3349 130.887 35.6133H132.887C132.887 33.7823 132.203 32.2836 130.77 31.288L129.629 32.9307ZM130.887 35.6133C130.887 36.2127 130.73 36.7231 130.425 37.1749L132.083 38.2938C132.622 37.4957 132.887 36.5919 132.887 35.6133H130.887ZM130.423 37.1773C130.139 37.6007 129.709 37.9481 129.072 38.1979L129.803 40.0599C130.759 39.6847 131.54 39.1024 132.084 38.2915L130.423 37.1773ZM129.228 40.1068C130.055 40.2836 130.582 40.6364 130.918 41.1122L132.551 39.9581C131.872 38.9964 130.866 38.4117 129.647 38.151L129.228 40.1068ZM130.922 41.1181C131.307 41.6549 131.508 42.2799 131.508 43.0312H133.508C133.508 41.892 133.193 40.8529 132.547 39.9522L130.922 41.1181ZM131.508 43.0312C131.508 44.4228 131.062 45.3418 130.274 45.9586L131.507 47.5336C132.875 46.4629 133.508 44.9054 133.508 43.0312H131.508ZM130.278 45.9558C129.438 46.6067 128.16 47 126.309 47V49C128.411 49 130.187 48.5574 131.503 47.5364L130.278 45.9558ZM126.309 47H117.918V49H126.309V47ZM118.918 48V45.9492H116.918V48H118.918ZM118.108 46.931L119.924 46.5794L119.544 44.6159L117.728 44.9674L118.108 46.931ZM120.734 45.5977V33.3516H118.734V45.5977H120.734ZM119.924 32.3698L118.108 32.0182L117.728 33.9818L119.544 34.3333L119.924 32.3698ZM118.918 33V30.9375H116.918V33H118.918ZM117.918 31.9375H119.734V29.9375H117.918V31.9375ZM119.734 31.9375H125.5V29.9375H119.734V31.9375ZM122.156 40.4531V45.375H124.156V40.4531H122.156ZM123.156 46.375H126.309V44.375H123.156V46.375ZM126.309 46.375C127.341 46.375 128.294 46.1548 129.017 45.5625L127.749 44.0157C127.518 44.2046 127.089 44.375 126.309 44.375V46.375ZM129.024 45.5563C129.782 44.9223 130.098 44.0218 130.098 43.0312H128.098C128.098 43.5876 127.936 43.8589 127.741 44.0219L129.024 45.5563ZM130.098 43.0312C130.098 42.0443 129.857 41.126 129.221 40.4406L127.755 41.8015C127.932 41.9912 128.098 42.3463 128.098 43.0312H130.098ZM129.227 40.4471C128.559 39.7149 127.594 39.4531 126.566 39.4531V41.4531C127.289 41.4531 127.605 41.6367 127.75 41.7951L129.227 40.4471ZM126.566 39.4531H123.156V41.4531H126.566V39.4531ZM123.156 39.0859H125.617V37.0859H123.156V39.0859ZM125.617 39.0859C126.65 39.0859 127.601 38.8766 128.333 38.3189L127.121 36.728C126.868 36.9203 126.412 37.0859 125.617 37.0859V39.0859ZM128.333 38.3189C129.115 37.7226 129.465 36.8565 129.465 35.8828H127.465C127.465 36.3466 127.322 36.5743 127.121 36.728L128.333 38.3189ZM129.465 35.8828C129.465 34.8703 129.132 33.9494 128.315 33.3367L127.115 34.9367C127.298 35.0741 127.465 35.3172 127.465 35.8828H129.465ZM128.321 33.3413C127.578 32.7756 126.583 32.5742 125.5 32.5742V34.5742C126.386 34.5742 126.867 34.7479 127.109 34.9322L128.321 33.3413ZM125.5 32.5742H123.156V34.5742H125.5V32.5742ZM122.156 33.5742V38.0859H124.156V33.5742H122.156ZM133.609 45.9492L133.467 44.9595L132.609 45.0831V45.9492H133.609ZM134.828 45.7734L134.971 46.7632L135.572 46.6766L135.772 46.1037L134.828 45.7734ZM140.02 30.9375V29.9375H139.31L139.076 30.6072L140.02 30.9375ZM143.523 30.9375L144.468 30.6092L144.235 29.9375H143.523V30.9375ZM148.68 45.7734L147.735 46.1017L147.935 46.6764L148.537 46.7632L148.68 45.7734ZM149.898 45.9492H150.898V45.0831L150.041 44.9595L149.898 45.9492ZM149.898 48V49H150.898V48H149.898ZM144.086 48H143.086V49H144.086V48ZM144.086 45.9492L143.91 44.9647L143.086 45.1117V45.9492H144.086ZM145.27 45.7383L145.445 46.7228L146.57 46.5222L146.222 45.4335L145.27 45.7383ZM144.52 43.3945L145.472 43.0898L145.249 42.3945H144.52V43.3945ZM138.988 43.3945V42.3945H138.258L138.036 43.0898L138.988 43.3945ZM138.238 45.7383L137.286 45.4335L136.937 46.5222L138.063 46.7228L138.238 45.7383ZM139.422 45.9492H140.422V45.1117L139.597 44.9647L139.422 45.9492ZM139.422 48V49H140.422V48H139.422ZM133.609 48H132.609V49H133.609V48ZM139.797 40.875L138.844 40.5705L138.427 41.875H139.797V40.875ZM143.711 40.875V41.875H145.08L144.663 40.5705L143.711 40.875ZM141.789 34.8633L142.742 34.5588L142.519 33.8633H141.789V34.8633ZM141.719 34.8633V33.8633H140.989L140.766 34.5588L141.719 34.8633ZM133.752 46.939L134.971 46.7632L134.685 44.7837L133.467 44.9595L133.752 46.939ZM135.772 46.1037L140.963 31.2678L139.076 30.6072L133.884 45.4432L135.772 46.1037ZM140.02 31.9375H143.523V29.9375H140.02V31.9375ZM142.579 31.2658L147.735 46.1017L149.624 45.4451L144.468 30.6092L142.579 31.2658ZM148.537 46.7632L149.756 46.939L150.041 44.9595L148.822 44.7837L148.537 46.7632ZM148.898 45.9492V48H150.898V45.9492H148.898ZM149.898 47H144.086V49H149.898V47ZM145.086 48V45.9492H143.086V48H145.086ZM144.261 46.9337L145.445 46.7228L145.094 44.7538L143.91 44.9647L144.261 46.9337ZM146.222 45.4335L145.472 43.0898L143.567 43.6993L144.317 46.0431L146.222 45.4335ZM144.52 42.3945H138.988V44.3945H144.52V42.3945ZM138.036 43.0898L137.286 45.4335L139.191 46.0431L139.941 43.6993L138.036 43.0898ZM138.063 46.7228L139.246 46.9337L139.597 44.9647L138.414 44.7538L138.063 46.7228ZM138.422 45.9492V48H140.422V45.9492H138.422ZM139.422 47H133.609V49H139.422V47ZM134.609 48V45.9492H132.609V48H134.609ZM139.797 41.875H143.711V39.875H139.797V41.875ZM144.663 40.5705L142.742 34.5588L140.837 35.1678L142.758 41.1795L144.663 40.5705ZM141.789 33.8633H141.719V35.8633H141.789V33.8633ZM140.766 34.5588L138.844 40.5705L140.749 41.1795L142.671 35.1678L140.766 34.5588ZM163.258 32.2734L162.629 33.0511L162.632 33.0538L163.258 32.2734ZM162.191 39.7148L161.79 38.7991L159.28 39.8998L161.909 40.6741L162.191 39.7148ZM164.359 41.2031L163.513 41.7357L163.52 41.7468L164.359 41.2031ZM165.25 45.5156L164.432 46.0911L164.437 46.0984L164.443 46.1056L165.25 45.5156ZM165.988 45.8789L166.126 44.8884L166.114 44.8867L166.101 44.8853L165.988 45.8789ZM166.41 45.9375H167.41V45.0668L166.548 44.947L166.41 45.9375ZM166.41 48V49H167.41V48H166.41ZM160.938 41.8477L160.201 42.5239L160.207 42.5302L160.213 42.5364L160.938 41.8477ZM159.074 41.0977L159.103 40.0981L159.089 40.0977H159.074V41.0977ZM156.273 41.0977V40.0977H155.273V41.0977H156.273ZM156.273 45.5977H155.273V46.4237L156.085 46.5797L156.273 45.5977ZM158.102 45.9492H159.102V45.1232L158.29 44.9672L158.102 45.9492ZM158.102 48V49H159.102V48H158.102ZM151.035 48H150.035V49H151.035V48ZM151.035 45.9492L150.845 44.9674L150.035 45.1242V45.9492H151.035ZM152.852 45.5977L153.042 46.5794L153.852 46.4227V45.5977H152.852ZM152.852 33.3516H153.852V32.5266L153.042 32.3698L152.852 33.3516ZM151.035 33H150.035V33.825L150.845 33.9818L151.035 33ZM151.035 30.9375V29.9375H150.035V30.9375H151.035ZM156.273 38.4609H155.273V39.4609H156.273V38.4609ZM160.785 34.2656L160.084 34.9786L160.09 34.9845L160.096 34.9903L160.785 34.2656ZM156.273 33.5742V32.5742H155.273V33.5742H156.273ZM158.699 31.9375C160.491 31.9375 161.761 32.3493 162.629 33.0511L163.887 31.4958C162.551 30.4163 160.782 29.9375 158.699 29.9375V31.9375ZM162.632 33.0538C163.47 33.7248 163.91 34.6455 163.91 35.9414H165.91C165.91 34.1123 165.249 32.5877 163.883 31.4931L162.632 33.0538ZM163.91 35.9414C163.91 36.6109 163.735 37.1459 163.41 37.5909L165.027 38.7685C165.625 37.9478 165.91 36.9906 165.91 35.9414H163.91ZM163.41 37.5909C163.076 38.0498 162.557 38.4625 161.79 38.7991L162.593 40.6306C163.607 40.186 164.439 39.5752 165.027 38.7685L163.41 37.5909ZM161.909 40.6741C162.75 40.9219 163.238 41.2989 163.513 41.7357L165.206 40.6706C164.606 39.7168 163.648 39.1015 162.474 38.7556L161.909 40.6741ZM163.52 41.7468C163.837 42.2362 164.027 42.8909 164.027 43.7695H166.027C166.027 42.6012 165.772 41.545 165.199 40.6595L163.52 41.7468ZM164.027 43.7695V44.6367H166.027V43.7695H164.027ZM164.027 44.6367C164.027 45.1284 164.122 45.651 164.432 46.0911L166.068 44.9401C166.081 44.9584 166.027 44.895 166.027 44.6367H164.027ZM164.443 46.1056C164.811 46.6093 165.362 46.8141 165.875 46.8725L166.101 44.8853C166.015 44.8755 165.984 44.86 165.987 44.8615C165.99 44.8627 166 44.8682 166.015 44.88C166.029 44.892 166.044 44.9075 166.057 44.9256L164.443 46.1056ZM165.851 46.8694L166.273 46.928L166.548 44.947L166.126 44.8884L165.851 46.8694ZM165.41 45.9375V48H167.41V45.9375H165.41ZM166.41 47H164.641V49H166.41V47ZM164.641 47C163.68 47 163.27 46.7429 163.084 46.496L161.486 47.6993C162.207 48.6555 163.367 49 164.641 49V47ZM163.084 46.496C162.793 46.1092 162.605 45.56 162.605 44.7656H160.605C160.605 45.8775 160.871 46.8829 161.486 47.6993L163.084 46.496ZM162.605 44.7656V43.793H160.605V44.7656H162.605ZM162.605 43.793C162.605 42.7833 162.33 41.8615 161.662 41.1589L160.213 42.5364C160.436 42.7713 160.605 43.1464 160.605 43.793H162.605ZM161.674 41.1714C161.012 40.4497 160.108 40.1273 159.103 40.0981L159.045 42.0972C159.65 42.1149 159.988 42.2925 160.201 42.5239L161.674 41.1714ZM159.074 40.0977H156.273V42.0977H159.074V40.0977ZM155.273 41.0977V45.5977H157.273V41.0977H155.273ZM156.085 46.5797L157.913 46.9312L158.29 44.9672L156.462 44.6156L156.085 46.5797ZM157.102 45.9492V48H159.102V45.9492H157.102ZM158.102 47H151.035V49H158.102V47ZM152.035 48V45.9492H150.035V48H152.035ZM151.225 46.931L153.042 46.5794L152.662 44.6159L150.845 44.9674L151.225 46.931ZM153.852 45.5977V33.3516H151.852V45.5977H153.852ZM153.042 32.3698L151.225 32.0182L150.845 33.9818L152.662 34.3333L153.042 32.3698ZM152.035 33V30.9375H150.035V33H152.035ZM151.035 31.9375H152.852V29.9375H151.035V31.9375ZM152.852 31.9375H158.699V29.9375H152.852V31.9375ZM156.273 39.4609H158.641V37.4609H156.273V39.4609ZM158.641 39.4609C159.712 39.4609 160.703 39.2359 161.434 38.6126L160.136 37.0905C159.915 37.2797 159.475 37.4609 158.641 37.4609V39.4609ZM161.434 38.6126C162.182 37.9745 162.5 37.081 162.5 36.0938H160.5C160.5 36.6377 160.341 36.9161 160.136 37.0905L161.434 38.6126ZM162.5 36.0938C162.5 35.1032 162.182 34.2141 161.474 33.5409L160.096 34.9903C160.341 35.2234 160.5 35.5531 160.5 36.0938H162.5ZM161.486 33.5526C160.766 32.8445 159.777 32.5742 158.699 32.5742V34.5742C159.466 34.5742 159.867 34.7649 160.084 34.9786L161.486 33.5526ZM158.699 32.5742H156.273V34.5742H158.699V32.5742ZM155.273 33.5742V38.4609H157.273V33.5742H155.273ZM180.871 37.7344L180.042 37.1749L180.041 37.1773L180.871 37.7344ZM179.055 39.1289L178.69 38.1979L175.594 39.4118L178.846 40.1068L179.055 39.1289ZM181.352 40.5352L180.535 41.1122L180.539 41.1181L181.352 40.5352ZM180.508 46.7461L181.121 47.5364L181.124 47.5336L180.508 46.7461ZM167.535 48H166.535V49H167.535V48ZM167.535 45.9492L167.345 44.9674L166.535 45.1242V45.9492H167.535ZM169.352 45.5977L169.542 46.5794L170.352 46.4227V45.5977H169.352ZM169.352 33.3516H170.352V32.5266L169.542 32.3698L169.352 33.3516ZM167.535 33H166.535V33.825L167.345 33.9818L167.535 33ZM167.535 30.9375V29.9375H166.535V30.9375H167.535ZM172.773 40.4531V39.4531H171.773V40.4531H172.773ZM172.773 45.375H171.773V46.375H172.773V45.375ZM178 44.7891L178.634 45.5625L178.641 45.5563L178 44.7891ZM178.105 41.1211L177.367 41.7951L177.373 41.8015L178.105 41.1211ZM172.773 38.0859H171.773V39.0859H172.773V38.0859ZM177.332 34.1367L176.726 34.9322L176.732 34.9367L177.332 34.1367ZM172.773 33.5742V32.5742H171.773V33.5742H172.773ZM175.117 31.9375C177.011 31.9375 178.35 32.3084 179.246 32.9307L180.387 31.288C179.033 30.3478 177.239 29.9375 175.117 29.9375V31.9375ZM179.246 32.9307C180.062 33.4976 180.504 34.3349 180.504 35.6133H182.504C182.504 33.7823 181.82 32.2836 180.387 31.288L179.246 32.9307ZM180.504 35.6133C180.504 36.2127 180.347 36.7231 180.042 37.1749L181.7 38.2938C182.239 37.4957 182.504 36.5919 182.504 35.6133H180.504ZM180.041 37.1773C179.757 37.6007 179.327 37.9481 178.69 38.1979L179.42 40.0599C180.377 39.6847 181.157 39.1024 181.702 38.2915L180.041 37.1773ZM178.846 40.1068C179.673 40.2836 180.199 40.6364 180.535 41.1122L182.168 39.9581C181.489 38.9964 180.484 38.4117 179.264 38.151L178.846 40.1068ZM180.539 41.1181C180.924 41.6549 181.125 42.2799 181.125 43.0312H183.125C183.125 41.892 182.81 40.8529 182.164 39.9522L180.539 41.1181ZM181.125 43.0312C181.125 44.4228 180.68 45.3418 179.892 45.9586L181.124 47.5336C182.492 46.4629 183.125 44.9054 183.125 43.0312H181.125ZM179.895 45.9558C179.056 46.6067 177.777 47 175.926 47V49C178.028 49 179.804 48.5574 181.121 47.5364L179.895 45.9558ZM175.926 47H167.535V49H175.926V47ZM168.535 48V45.9492H166.535V48H168.535ZM167.725 46.931L169.542 46.5794L169.162 44.6159L167.345 44.9674L167.725 46.931ZM170.352 45.5977V33.3516H168.352V45.5977H170.352ZM169.542 32.3698L167.725 32.0182L167.345 33.9818L169.162 34.3333L169.542 32.3698ZM168.535 33V30.9375H166.535V33H168.535ZM167.535 31.9375H169.352V29.9375H167.535V31.9375ZM169.352 31.9375H175.117V29.9375H169.352V31.9375ZM171.773 40.4531V45.375H173.773V40.4531H171.773ZM172.773 46.375H175.926V44.375H172.773V46.375ZM175.926 46.375C176.958 46.375 177.911 46.1548 178.634 45.5625L177.366 44.0157C177.136 44.2046 176.706 44.375 175.926 44.375V46.375ZM178.641 45.5563C179.4 44.9223 179.715 44.0218 179.715 43.0312H177.715C177.715 43.5876 177.553 43.8589 177.359 44.0219L178.641 45.5563ZM179.715 43.0312C179.715 42.0443 179.475 41.126 178.838 40.4406L177.373 41.8015C177.549 41.9912 177.715 42.3463 177.715 43.0312H179.715ZM178.844 40.4471C178.176 39.7149 177.211 39.4531 176.184 39.4531V41.4531C176.906 41.4531 177.222 41.6367 177.367 41.7951L178.844 40.4471ZM176.184 39.4531H172.773V41.4531H176.184V39.4531ZM172.773 39.0859H175.234V37.0859H172.773V39.0859ZM175.234 39.0859C176.267 39.0859 177.218 38.8766 177.95 38.3189L176.738 36.728C176.485 36.9203 176.03 37.0859 175.234 37.0859V39.0859ZM177.95 38.3189C178.732 37.7226 179.082 36.8565 179.082 35.8828H177.082C177.082 36.3466 176.939 36.5743 176.738 36.728L177.95 38.3189ZM179.082 35.8828C179.082 34.8703 178.749 33.9494 177.932 33.3367L176.732 34.9367C176.915 35.0741 177.082 35.3172 177.082 35.8828H179.082ZM177.938 33.3413C177.196 32.7756 176.2 32.5742 175.117 32.5742V34.5742C176.003 34.5742 176.484 34.7479 176.726 34.9322L177.938 33.3413ZM175.117 32.5742H172.773V34.5742H175.117V32.5742ZM171.773 33.5742V38.0859H173.773V33.5742H171.773ZM194.418 40.5V41.5H195.418V40.5H194.418ZM188.641 40.5V39.5H187.641V40.5H188.641ZM188.641 45.375H187.641V46.375H188.641V45.375ZM194.148 45.375V46.375H195.077L195.146 45.4495L194.148 45.375ZM194.301 43.3359V42.3359H193.373L193.304 43.2614L194.301 43.3359ZM196.902 43.3359H197.902V42.3359H196.902V43.3359ZM196.902 48V49H197.902V48H196.902ZM183.402 48H182.402V49H183.402V48ZM183.402 45.9492L183.212 44.9674L182.402 45.1242V45.9492H183.402ZM185.219 45.5977L185.409 46.5794L186.219 46.4227V45.5977H185.219ZM185.219 33.3516H186.219V32.5266L185.409 32.3698L185.219 33.3516ZM183.402 33H182.402V33.825L183.212 33.9818L183.402 33ZM183.402 30.9375V29.9375H182.402V30.9375H183.402ZM196.879 30.9375H197.879V29.9375H196.879V30.9375ZM196.879 35.6133V36.6133H197.879V35.6133H196.879ZM194.254 35.6133L193.257 35.6878L193.326 36.6133H194.254V35.6133ZM194.102 33.5742L195.099 33.4997L195.03 32.5742H194.102V33.5742ZM188.641 33.5742V32.5742H187.641V33.5742H188.641ZM188.641 37.8633H187.641V38.8633H188.641V37.8633ZM194.418 37.8633H195.418V36.8633H194.418V37.8633ZM194.418 39.5H188.641V41.5H194.418V39.5ZM187.641 40.5V45.375H189.641V40.5H187.641ZM188.641 46.375H194.148V44.375H188.641V46.375ZM195.146 45.4495L195.298 43.4104L193.304 43.2614L193.151 45.3005L195.146 45.4495ZM194.301 44.3359H196.902V42.3359H194.301V44.3359ZM195.902 43.3359V48H197.902V43.3359H195.902ZM196.902 47H183.402V49H196.902V47ZM184.402 48V45.9492H182.402V48H184.402ZM183.592 46.931L185.409 46.5794L185.029 44.6159L183.212 44.9674L183.592 46.931ZM186.219 45.5977V33.3516H184.219V45.5977H186.219ZM185.409 32.3698L183.592 32.0182L183.212 33.9818L185.029 34.3333L185.409 32.3698ZM184.402 33V30.9375H182.402V33H184.402ZM183.402 31.9375H185.219V29.9375H183.402V31.9375ZM185.219 31.9375H196.879V29.9375H185.219V31.9375ZM195.879 30.9375V35.6133H197.879V30.9375H195.879ZM196.879 34.6133H194.254V36.6133H196.879V34.6133ZM195.251 35.5388L195.099 33.4997L193.104 33.6487L193.257 35.6878L195.251 35.5388ZM194.102 32.5742H188.641V34.5742H194.102V32.5742ZM187.641 33.5742V37.8633H189.641V33.5742H187.641ZM188.641 38.8633H194.418V36.8633H188.641V38.8633ZM193.418 37.8633V40.5H195.418V37.8633H193.418ZM210.953 32.2734L210.324 33.0511L210.328 33.0538L210.953 32.2734ZM209.887 39.7148L209.485 38.7991L206.975 39.8998L209.604 40.6741L209.887 39.7148ZM212.055 41.2031L211.208 41.7357L211.215 41.7468L212.055 41.2031ZM212.945 45.5156L212.128 46.0911L212.133 46.0984L212.138 46.1056L212.945 45.5156ZM213.684 45.8789L213.821 44.8884L213.809 44.8867L213.797 44.8853L213.684 45.8789ZM214.105 45.9375H215.105V45.0668L214.243 44.947L214.105 45.9375ZM214.105 48V49H215.105V48H214.105ZM208.633 41.8477L207.896 42.5239L207.902 42.5302L207.908 42.5364L208.633 41.8477ZM206.77 41.0977L206.799 40.0981L206.784 40.0977H206.77V41.0977ZM203.969 41.0977V40.0977H202.969V41.0977H203.969ZM203.969 45.5977H202.969V46.4237L203.78 46.5797L203.969 45.5977ZM205.797 45.9492H206.797V45.1232L205.986 44.9672L205.797 45.9492ZM205.797 48V49H206.797V48H205.797ZM198.73 48H197.73V49H198.73V48ZM198.73 45.9492L198.54 44.9674L197.73 45.1242V45.9492H198.73ZM200.547 45.5977L200.737 46.5794L201.547 46.4227V45.5977H200.547ZM200.547 33.3516H201.547V32.5266L200.737 32.3698L200.547 33.3516ZM198.73 33H197.73V33.825L198.54 33.9818L198.73 33ZM198.73 30.9375V29.9375H197.73V30.9375H198.73ZM203.969 38.4609H202.969V39.4609H203.969V38.4609ZM208.48 34.2656L207.779 34.9786L207.785 34.9845L207.791 34.9903L208.48 34.2656ZM203.969 33.5742V32.5742H202.969V33.5742H203.969ZM206.395 31.9375C208.187 31.9375 209.456 32.3493 210.324 33.0511L211.582 31.4958C210.247 30.4163 208.477 29.9375 206.395 29.9375V31.9375ZM210.328 33.0538C211.165 33.7248 211.605 34.6455 211.605 35.9414H213.605C213.605 34.1123 212.944 32.5877 211.578 31.4931L210.328 33.0538ZM211.605 35.9414C211.605 36.6109 211.43 37.1459 211.106 37.5909L212.722 38.7685C213.32 37.9478 213.605 36.9906 213.605 35.9414H211.605ZM211.106 37.5909C210.771 38.0498 210.252 38.4625 209.485 38.7991L210.288 40.6306C211.302 40.186 212.135 39.5752 212.722 38.7685L211.106 37.5909ZM209.604 40.6741C210.445 40.9219 210.933 41.2989 211.208 41.7357L212.901 40.6706C212.301 39.7168 211.344 39.1015 210.169 38.7556L209.604 40.6741ZM211.215 41.7468C211.532 42.2362 211.723 42.8909 211.723 43.7695H213.723C213.723 42.6012 213.468 41.545 212.894 40.6595L211.215 41.7468ZM211.723 43.7695V44.6367H213.723V43.7695H211.723ZM211.723 44.6367C211.723 45.1284 211.818 45.651 212.128 46.0911L213.763 44.9401C213.776 44.9584 213.723 44.895 213.723 44.6367H211.723ZM212.138 46.1056C212.506 46.6093 213.057 46.8141 213.571 46.8725L213.797 44.8853C213.71 44.8755 213.68 44.86 213.683 44.8615C213.685 44.8627 213.695 44.8682 213.71 44.88C213.725 44.892 213.739 44.9075 213.753 44.9256L212.138 46.1056ZM213.546 46.8694L213.968 46.928L214.243 44.947L213.821 44.8884L213.546 46.8694ZM213.105 45.9375V48H215.105V45.9375H213.105ZM214.105 47H212.336V49H214.105V47ZM212.336 47C211.375 47 210.965 46.7429 210.779 46.496L209.182 47.6993C209.902 48.6555 211.063 49 212.336 49V47ZM210.779 46.496C210.488 46.1092 210.301 45.56 210.301 44.7656H208.301C208.301 45.8775 208.567 46.8829 209.182 47.6993L210.779 46.496ZM210.301 44.7656V43.793H208.301V44.7656H210.301ZM210.301 43.793C210.301 42.7833 210.025 41.8615 209.358 41.1589L207.908 42.5364C208.131 42.7713 208.301 43.1464 208.301 43.793H210.301ZM209.369 41.1714C208.707 40.4497 207.803 40.1273 206.799 40.0981L206.74 42.0972C207.345 42.1149 207.684 42.2925 207.896 42.5239L209.369 41.1714ZM206.77 40.0977H203.969V42.0977H206.77V40.0977ZM202.969 41.0977V45.5977H204.969V41.0977H202.969ZM203.78 46.5797L205.608 46.9312L205.986 44.9672L204.158 44.6156L203.78 46.5797ZM204.797 45.9492V48H206.797V45.9492H204.797ZM205.797 47H198.73V49H205.797V47ZM199.73 48V45.9492H197.73V48H199.73ZM198.92 46.931L200.737 46.5794L200.357 44.6159L198.54 44.9674L198.92 46.931ZM201.547 45.5977V33.3516H199.547V45.5977H201.547ZM200.737 32.3698L198.92 32.0182L198.54 33.9818L200.357 34.3333L200.737 32.3698ZM199.73 33V30.9375H197.73V33H199.73ZM198.73 31.9375H200.547V29.9375H198.73V31.9375ZM200.547 31.9375H206.395V29.9375H200.547V31.9375ZM203.969 39.4609H206.336V37.4609H203.969V39.4609ZM206.336 39.4609C207.408 39.4609 208.398 39.2359 209.129 38.6126L207.832 37.0905C207.61 37.2797 207.17 37.4609 206.336 37.4609V39.4609ZM209.129 38.6126C209.878 37.9745 210.195 37.081 210.195 36.0938H208.195C208.195 36.6377 208.036 36.9161 207.832 37.0905L209.129 38.6126ZM210.195 36.0938C210.195 35.1032 209.878 34.2141 209.17 33.5409L207.791 34.9903C208.037 35.2234 208.195 35.5531 208.195 36.0938H210.195ZM209.182 33.5526C208.461 32.8445 207.472 32.5742 206.395 32.5742V34.5742C207.161 34.5742 207.562 34.7649 207.779 34.9786L209.182 33.5526ZM206.395 32.5742H203.969V34.5742H206.395V32.5742ZM202.969 33.5742V38.4609H204.969V33.5742H202.969Z" fill="black"/>
</g>
<defs>
<filter id="filter0_d" x="80.9766" y="30.6914" width="137.129" height="25.5547" filterUnits="userSpaceOnUse" color-interpolation-filters="sRGB">
<feFlood flood-opacity="0" result="BackgroundImageFix"/>
<feColorMatrix in="SourceAlpha" type="matrix" values="0 0 0 0 0 0 0 0 0 0 0 0 0 0 0 0 0 0 127 0"/>
<feOffset dy="4"/>
<feGaussianBlur stdDeviation="2"/>
<feColorMatrix type="matrix" values="0 0 0 0 0 0 0 0 0 0 0 0 0 0 0 0 0 0 0.25 0"/>
<feBlend mode="normal" in2="BackgroundImageFix" result="effect1_dropShadow"/>
<feBlend mode="normal" in="SourceGraphic" in2="effect1_dropShadow" result="shape"/>
</filter>
<clipPath id="clip0">
<rect x="28" y="27" width="47.3426" height="35.77" fill="white"/>
</clipPath>
</defs>
</svg>
